<svg width="16" height="16" viewBox="0 0 16 16" fill="none" xmlns="http://www.w3.org/2000/svg">
<path d="M7.64537 13.6458L8.35237 14.3528L14.3524 8.35283C15.9254 6.77983 15.9254 4.21883 14.3524 2.64583C12.7784 1.07183 10.2194 1.07183 8.64537 2.64583L2.14538 9.14583C0.847375 10.4438 0.847375 12.5548 2.14538 13.8528C2.79338 14.5008 3.64638 14.8268 4.49938 14.8268C5.35238 14.8268 6.20437 14.5018 6.85337 13.8528L12.8534 7.85283C13.3484 7.35783 13.6204 6.69983 13.6204 5.99983C13.6204 5.29983 13.3484 4.64183 12.8524 4.14583C11.8624 3.15583 10.1354 3.15583 9.14537 4.14583L3.64538 9.64583L4.35238 10.3528L9.85238 4.85283C10.4634 4.24183 11.5344 4.24183 12.1454 4.85283C12.4514 5.15883 12.6204 5.56583 12.6204 5.99983C12.6204 6.43383 12.4514 6.84083 12.1454 7.14583L6.14537 13.1458C5.23737 14.0538 3.76038 14.0538 2.85238 13.1458C1.94438 12.2378 1.94438 10.7608 2.85238 9.85283L9.35238 3.35283C10.5364 2.16883 12.4614 2.16883 13.6454 3.35283C14.8294 4.53683 14.8294 6.46183 13.6454 7.64583L7.64537 13.6458Z" fill="black"/>
</svg>
