<svg width="20" height="21" viewBox="0 0 20 21" fill="none" xmlns="http://www.w3.org/2000/svg">
<path d="M8.01562 11.1875C8.00781 11.1797 7.99609 11.1719 7.98828 11.1641C7.72656 10.9609 7.38672 10.8828 7.0625 10.9453C6.73828 11.0117 6.45703 11.2148 6.29297 11.5039C6.05469 11.9297 6.10938 12.4609 6.4375 12.8242L8.46484 15.0859L8.55078 16.7148C8.55859 16.8711 8.6875 16.9922 8.84375 16.9922H13.8672C14.0273 16.9922 14.1602 16.8594 14.1602 16.6992V16.2852L14.5469 14.2812C14.5508 14.2617 14.5508 14.2461 14.5508 14.2266V11.832C14.5508 11.3047 14.1211 10.875 13.5938 10.875C13.4453 10.875 13.3047 10.9102 13.1797 10.9688C13.0586 10.582 12.6953 10.3008 12.2656 10.3008C12.1055 10.3008 11.9492 10.3398 11.8164 10.4141C11.7109 10.1719 11.5117 9.98047 11.2656 9.89062C11.7109 9.45312 11.957 8.90625 11.957 8.32422V7.07031C11.957 7.06641 11.957 7.05859 11.957 7.05469C11.957 7.04687 11.957 7.03516 11.957 7.02734C11.957 5.63281 10.4961 4.5 8.70312 4.5C6.91016 4.5 5.44922 5.63281 5.44922 7.02734C5.44922 7.03516 5.44922 7.04297 5.44922 7.05078C5.44922 7.05859 5.44922 7.06641 5.44922 7.07422V8.32812C5.44922 9.70703 6.87891 10.832 8.65234 10.8555V11.8242L8.01562 11.1875ZM11.3086 12.5312C11.3086 12.6914 11.4414 12.8242 11.6016 12.8242C11.7617 12.8242 11.8945 12.6914 11.8945 12.5312V11.2617C11.8945 11.0586 12.0625 10.8906 12.2656 10.8906C12.4688 10.8906 12.6367 11.0586 12.6367 11.2617V12.8242C12.6367 12.9844 12.7695 13.1172 12.9297 13.1172C13.0898 13.1172 13.2227 12.9844 13.2227 12.8242V11.8359C13.2227 11.6328 13.3906 11.4648 13.5938 11.4648C13.7969 11.4648 13.9648 11.6328 13.9648 11.8359V14.2031L13.5781 16.207C13.5742 16.2266 13.5742 16.2422 13.5742 16.2617V16.4102H9.11719L9.04297 14.957C9.03906 14.8906 9.01172 14.8281 8.96875 14.7773L6.875 12.4375C6.71484 12.2617 6.6875 12 6.80469 11.793C6.88281 11.6523 7.01953 11.5547 7.17969 11.5195C7.33203 11.4883 7.49219 11.5234 7.61719 11.6172L8.73828 12.7383C8.82031 12.8203 8.94922 12.8477 9.05859 12.8008C9.16797 12.7539 9.23828 12.6484 9.23828 12.5312V8.83984C9.23828 8.63672 9.40625 8.46875 9.60938 8.46875C9.8125 8.46875 9.98047 8.63672 9.98047 8.83984V12.2773C9.98047 12.4375 10.1133 12.5703 10.2734 12.5703C10.4336 12.5703 10.5664 12.4375 10.5664 12.2773V10.793C10.5664 10.5898 10.7344 10.4219 10.9375 10.4219C11.1406 10.4219 11.3086 10.5898 11.3086 10.793V12.5312ZM11.3594 8.49219C11.3047 8.95703 11.0195 9.38672 10.5625 9.71094V9.10156C10.8789 8.9375 11.1484 8.73047 11.3594 8.49219ZM8.70312 5.08984C10.1719 5.08984 11.3711 5.96094 11.3711 7.03125C11.3711 7.03906 11.3711 7.05078 11.3711 7.05859C11.3711 7.0625 11.3711 7.0625 11.3711 7.06641C11.3594 7.60547 11.0352 8.10938 10.4922 8.46875C10.3477 8.125 10.0078 7.88281 9.60938 7.88281C9.08203 7.88281 8.65234 8.3125 8.65234 8.83984V8.97266C7.20703 8.95312 6.03906 8.08984 6.03906 7.03125C6.03516 5.96094 7.23438 5.08984 8.70312 5.08984ZM6.04688 8.48438C6.62891 9.12109 7.57812 9.54297 8.65234 9.55469V10.2656C7.27734 10.2461 6.15625 9.46875 6.04688 8.48438Z" fill="black"/>
<path d="M8.70312 8C8.86328 8 8.99609 7.86719 8.99609 7.70703V6.35547C8.99609 6.19531 8.86328 6.0625 8.70312 6.0625C8.54297 6.0625 8.41016 6.19531 8.41016 6.35547V7.70703C8.41016 7.86719 8.54297 8 8.70312 8Z" fill="black"/>
</svg>
