<svg width="26" height="30" viewBox="0 0 26 30" fill="none" xmlns="http://www.w3.org/2000/svg">
<g id="Frame" clip-path="url(#clip0_212_38)">
<path id="Vector" d="M12.5415 23.9121C12.0482 24.5098 11.1661 24.5098 10.6205 23.9121L6.90625 20.1621C6.36652 19.6641 6.36652 18.7734 6.90625 18.2227C7.45179 17.6777 8.33393 17.6777 8.82723 18.2227L11.6071 20.9824L17.1205 15.4102C17.6661 14.8652 18.5482 14.8652 19.0415 15.4102C19.6335 15.9609 19.6335 16.8516 19.0415 17.3496L12.5415 23.9121ZM7.42857 0C8.20045 0 8.82143 0.629883 8.82143 1.40625V3.75H17.1786V1.40625C17.1786 0.629883 17.7996 0 18.5714 0C19.3433 0 19.9643 0.629883 19.9643 1.40625V3.75H22.2857C24.3344 3.75 26 5.42871 26 7.5V26.25C26 28.3184 24.3344 30 22.2857 30H3.71429C1.66272 30 0 28.3184 0 26.25V7.5C0 5.42871 1.66272 3.75 3.71429 3.75H6.03571V1.40625C6.03571 0.629883 6.6567 0 7.42857 0ZM23.2143 11.25H2.78571V26.25C2.78571 26.7656 3.20125 27.1875 3.71429 27.1875H22.2857C22.7964 27.1875 23.2143 26.7656 23.2143 26.25V11.25Z" fill="white"/>
</g>
<defs>
<clipPath id="clip0_212_38">
<rect width="26" height="30" fill="white"/>
</clipPath>
</defs>
</svg>
