<svg width="60" height="61" viewBox="0 0 60 61" fill="none" xmlns="http://www.w3.org/2000/svg">
<path d="M48.9258 19.25H41.6953C37.9336 15.0312 36.75 13.625 35.3086 13.625H24.9375C23.4961 13.625 22.3359 15.0312 18.5508 19.25H16.9922V17.375H13.0078V19.25H11.4258C9.36328 19.25 7.5 20.7969 7.5 22.8477V43.4727C7.5 45.5234 9.36328 47.375 11.4258 47.375H48.9258C50.9883 47.375 52.5 45.5234 52.5 43.4727V22.8477C52.5 20.7969 50.9883 19.25 48.9258 19.25ZM50.625 43.4727C50.625 44.5625 49.8984 45.5 48.9258 45.5H11.4258C10.4062 45.5 9.375 44.4805 9.375 43.4727V22.8477C9.375 21.8867 10.3242 21.125 11.4258 21.125H18.5391H19.3711L19.9336 20.75C20.4023 20.2227 20.8359 19.5781 21.2344 19.1328C22.5586 17.6445 23.5195 16.5898 24.1992 15.9805C24.75 15.4883 24.9258 15.5 24.9258 15.5H35.2969C35.2969 15.5 35.4844 15.4883 36.082 16.0273C36.7969 16.6719 37.8047 17.9609 39.1992 19.5195C39.5391 19.9063 39.9023 20.3164 40.2891 20.75L40.8516 21.125H41.6953H48.9258C49.957 21.125 50.625 21.8281 50.625 22.8477V43.4727Z" fill="black"/>
<path d="M30 22.707C24.4805 22.707 19.9805 27.207 19.9805 32.7266C19.9805 38.2461 24.4805 42.7461 30 42.7461C35.5195 42.7461 40.0195 38.2461 40.0195 32.7266C40.0195 27.207 35.5195 22.707 30 22.707ZM30 40.8711C25.5 40.8711 21.8555 37.2266 21.8555 32.7266C21.8555 28.2266 25.5 24.582 30 24.582C34.5 24.582 38.1445 28.2266 38.1445 32.7266C38.1445 37.2266 34.5 40.8711 30 40.8711Z" fill="black"/>
<path d="M43.2422 23H41.25V24.9922H43.2422V23Z" fill="black"/>
<path d="M30 36.4766C32.0711 36.4766 33.75 34.7976 33.75 32.7266C33.75 30.6555 32.0711 28.9766 30 28.9766C27.9289 28.9766 26.25 30.6555 26.25 32.7266C26.25 34.7976 27.9289 36.4766 30 36.4766Z" fill="black"/>
</svg>
