<svg width="20" height="21" viewBox="0 0 20 21" fill="none" xmlns="http://www.w3.org/2000/svg">
<g clip-path="url(#clip0_166_1994)">
<path d="M10 0.75C8.02219 0.75 6.08879 1.33649 4.4443 2.4353C2.79981 3.53412 1.51809 5.0959 0.761209 6.92317C0.00433286 8.75043 -0.193701 10.7611 0.192152 12.7009C0.578004 14.6407 1.53041 16.4225 2.92894 17.8211C4.32746 19.2196 6.10929 20.172 8.0491 20.5579C9.98891 20.9437 11.9996 20.7457 13.8268 19.9888C15.6541 19.2319 17.2159 17.9502 18.3147 16.3057C19.4135 14.6612 20 12.7278 20 10.75C19.9971 8.09872 18.9426 5.55684 17.0679 3.6821C15.1932 1.80736 12.6513 0.752868 10 0.75ZM10 19.0833C8.35183 19.0833 6.74066 18.5946 5.37025 17.6789C3.99984 16.7632 2.93174 15.4617 2.30101 13.939C1.67028 12.4163 1.50525 10.7408 1.82679 9.12425C2.14834 7.50774 2.94201 6.02288 4.10745 4.85744C5.27289 3.69201 6.75774 2.89833 8.37425 2.57679C9.99076 2.25525 11.6663 2.42027 13.189 3.051C14.7118 3.68173 16.0132 4.74984 16.9289 6.12025C17.8446 7.49066 18.3333 9.10182 18.3333 10.75C18.3309 12.9594 17.4522 15.0776 15.8899 16.6399C14.3276 18.2022 12.2094 19.0809 10 19.0833Z" fill="#232323"/>
<path d="M10.8327 10.4053V5.75033C10.8327 5.52931 10.7449 5.31735 10.5886 5.16107C10.4323 5.00479 10.2204 4.91699 9.99935 4.91699C9.77834 4.91699 9.56637 5.00479 9.41009 5.16107C9.25381 5.31735 9.16602 5.52931 9.16602 5.75033V10.7503C9.16606 10.9713 9.25389 11.1832 9.41018 11.3395L11.9102 13.8395C12.0674 13.9913 12.2779 14.0753 12.4963 14.0734C12.7148 14.0715 12.9239 13.9838 13.0784 13.8293C13.2329 13.6748 13.3205 13.4658 13.3224 13.2473C13.3243 13.0288 13.2403 12.8183 13.0885 12.6612L10.8327 10.4053Z" fill="#232323"/>
</g>
<defs>
<clipPath id="clip0_166_1994">
<rect width="20" height="20" fill="white" transform="translate(0 0.75)"/>
</clipPath>
</defs>
</svg>
