<svg width="32" height="32" viewBox="0 0 32 32" fill="none" xmlns="http://www.w3.org/2000/svg">
<g id="Layer_3" clip-path="url(#clip0_212_26)">
<g id="Group">
<path id="Vector" d="M11.0664 12.3857C11.137 12.3857 11.2064 12.3777 11.277 12.375C11.2204 11.977 11.1804 11.5743 11.1804 11.1603C11.1804 7.76166 13.1804 4.83766 16.063 3.47833C15.033 1.79433 13.1837 0.666992 11.0664 0.666992C7.83036 0.666992 5.20703 3.29033 5.20703 6.52633C5.20703 9.76233 7.8297 12.3857 11.0664 12.3857Z" fill="white"/>
<path id="Vector_2" d="M19.6512 17.6687C23.2459 17.6687 26.1599 14.7547 26.1599 11.16C26.1599 7.5654 23.2459 4.65137 19.6512 4.65137C16.0566 4.65137 13.1426 7.5654 13.1426 11.16C13.1426 14.7547 16.0566 17.6687 19.6512 17.6687Z" fill="white"/>
<path id="Vector_3" d="M25.3294 17.5771C23.8161 18.9178 21.8314 19.7378 19.6508 19.7378C17.4801 19.7378 15.5041 18.9251 13.9928 17.5965C10.0508 19.7478 7.35742 24.0631 7.35742 29.0398C7.35742 29.8238 7.42742 30.5885 7.55542 31.3331H31.8021C31.9308 30.5891 32.0008 29.8238 32.0008 29.0405C32.0008 24.0485 29.2921 19.7218 25.3294 17.5771Z" fill="white"/>
<path id="Vector_4" d="M12.7747 16.137C12.356 15.5463 12.006 14.9043 11.7467 14.2163C11.5227 14.2356 11.296 14.2483 11.0667 14.2483C9.112 14.2483 7.33333 13.517 5.97267 12.3203C2.42467 14.257 0 18.1423 0 22.623C0 23.3283 0.0633333 24.0176 0.178 24.6883H6.21933C7.09067 20.9896 9.51333 17.8923 12.7747 16.137Z" fill="white"/>
</g>
</g>
<defs>
<clipPath id="clip0_212_26">
<rect width="32" height="32" fill="white"/>
</clipPath>
</defs>
</svg>
