<svg width="18" height="21" viewBox="0 0 18 21" fill="none" xmlns="http://www.w3.org/2000/svg">
<g clip-path="url(#clip0_163_1683)">
<path d="M17.3571 3.875H14.0472L12.6812 1.6582C12.2987 1.0948 11.708 0.75 11.033 0.75H6.96696C6.29196 0.75 5.66518 1.0948 5.31964 1.6582L3.95277 3.875H0.642857C0.286272 3.875 0 4.15352 0 4.5V5.125C0 5.47266 0.286272 5.75 0.642857 5.75H1.28571V18.25C1.28571 19.6309 2.43683 20.75 3.85714 20.75H14.1429C15.5632 20.75 16.7143 19.6309 16.7143 18.25V5.75H17.3571C17.7147 5.75 18 5.47266 18 5.125V4.5C18 4.15352 17.7147 3.875 17.3571 3.875ZM6.9067 2.7375C6.94687 2.66914 7.02723 2.625 7.11161 2.625H10.8884C10.9738 2.625 11.0541 2.66895 11.0943 2.7373L11.7964 3.875H6.20357L6.9067 2.7375ZM14.1429 18.875H3.85714C3.50208 18.875 3.21429 18.5952 3.21429 18.25V5.75H14.7857V18.25C14.7857 18.5938 14.4964 18.875 14.1429 18.875ZM9 17C9.35534 17 9.64286 16.7205 9.64286 16.375V8.25C9.64286 7.90453 9.35534 7.625 9 7.625C8.64466 7.625 8.35714 7.90625 8.35714 8.25V16.375C8.35714 16.7188 8.64643 17 9 17ZM5.78571 17C6.13929 17 6.42857 16.7188 6.42857 16.375V8.25C6.42857 7.90453 6.14105 7.625 5.78571 7.625C5.43038 7.625 5.14286 7.90625 5.14286 8.25V16.375C5.14286 16.7188 5.43214 17 5.78571 17ZM12.2143 17C12.5696 17 12.8571 16.7205 12.8571 16.375V8.25C12.8571 7.90453 12.5696 7.625 12.2143 7.625C11.8589 7.625 11.5714 7.90625 11.5714 8.25V16.375C11.5714 16.7188 11.8607 17 12.2143 17Z" fill="black"/>
</g>
<defs>
<clipPath id="clip0_163_1683">
<rect width="18" height="20" fill="white" transform="translate(0 0.75)"/>
</clipPath>
</defs>
</svg>
