<svg width="20" height="21" viewBox="0 0 20 21" fill="none" xmlns="http://www.w3.org/2000/svg">
<g clip-path="url(#clip0_163_1436)">
<path d="M19.2403 6.57856C19.6073 6.30452 19.5642 5.73319 19.2403 5.40932L15.3308 1.49974C15.0069 1.17587 14.4854 1.17587 14.1616 1.49974L7.82093 7.82936L1.48882 14.1504C1.16207 16.1775 0.826768 18.2131 0.5 20.2402L6.56688 19.2285C9.8467 15.9487 11.3966 14.4047 12.9609 12.8463C14.5252 11.2878 16.0637 9.75518 19.2403 6.57856Z" stroke="black" stroke-width="1.5" stroke-miterlimit="6.2" stroke-linecap="round" stroke-linejoin="round"/>
<path d="M17.2813 8.54004L17.3502 8.47105C17.5645 8.25674 17.5645 7.90927 17.3502 7.69496L12.9869 3.3316C12.7726 3.11729 12.4252 3.11729 12.2108 3.3316L12.1419 3.40059C11.9275 3.6149 11.9275 3.96237 12.1419 4.17668L16.5052 8.54004C16.7195 8.75435 17.0669 8.75435 17.2813 8.54004Z" fill="black"/>
<path d="M4.12554 20.1509L0.637781 16.6631L0.5 20.2398L4.12554 20.1509Z" fill="black"/>
<path d="M7.03907 18.7168L7.10805 18.6478C7.32236 18.4335 7.32236 18.086 7.10805 17.8717L2.74474 13.5084C2.53043 13.294 2.18297 13.294 1.96866 13.5084L1.89967 13.5773C1.68536 13.7917 1.68536 14.1391 1.89967 14.3534L6.26298 18.7168C6.47729 18.9311 6.82476 18.9311 7.03907 18.7168Z" fill="black"/>
</g>
<defs>
<clipPath id="clip0_163_1436">
<rect width="20" height="20" fill="white" transform="translate(0 0.75)"/>
</clipPath>
</defs>
</svg>
