<svg width="24" height="24" viewBox="0 0 24 24" fill="none" xmlns="http://www.w3.org/2000/svg">
<g clip-path="url(#clip0_161_263)">
<path d="M22.5 3.5H1.5C1.10218 3.5 0.720644 3.65804 0.43934 3.93934C0.158035 4.22064 0 4.60218 0 5L0 19C0 19.3978 0.158035 19.7794 0.43934 20.0607C0.720644 20.342 1.10218 20.5 1.5 20.5H22.5C22.8978 20.5 23.2794 20.342 23.5607 20.0607C23.842 19.7794 24 19.3978 24 19V5C24 4.60218 23.842 4.22064 23.5607 3.93934C23.2794 3.65804 22.8978 3.5 22.5 3.5ZM22.18 4.5L12 12.37L1.82 4.5H22.18ZM1 18.795V5.13L8.705 11.085L1 18.795ZM1.705 19.5L9.5 11.705L11.69 13.4C11.7774 13.4673 11.8847 13.5038 11.995 13.5038C12.1053 13.5038 12.2126 13.4673 12.3 13.4L14.5 11.705L22.295 19.5H1.705ZM23 18.795L15.295 11.085L23 5.13V18.795Z" fill="black"/>
</g>
<defs>
<clipPath id="clip0_161_263">
<rect width="24" height="24" fill="white"/>
</clipPath>
</defs>
</svg>
