<svg width="30" height="30" viewBox="0 0 30 30" fill="none" xmlns="http://www.w3.org/2000/svg">
<g id="Frame">
<path id="Vector" d="M8.75051 7.95231C10.4531 6.9492 12.527 6.25 15.0005 6.25C22.8848 6.25 26.7094 13.354 27.3891 14.76C27.4636 14.9139 27.4633 15.0868 27.3889 15.2408C26.9486 16.151 25.1933 19.4431 21.8755 21.6555M17.5005 23.5001C16.7174 23.6608 15.8844 23.75 15.0005 23.75C7.11633 23.75 3.29159 16.646 2.61188 15.24C2.53743 15.0861 2.53863 14.9114 2.61311 14.7574C2.88645 14.1924 3.66276 12.7176 5.00051 11.1514" stroke="black" stroke-width="2" stroke-linecap="round" stroke-linejoin="round"/>
<path id="Vector_2" d="M12.5 12.2049C13.1635 11.6111 14.0395 11.25 15 11.25C17.0711 11.25 18.75 12.9289 18.75 15C18.75 15.9605 18.3889 16.8365 17.7951 17.5" stroke="black" stroke-width="2" stroke-linecap="round" stroke-linejoin="round"/>
<path id="Vector_3" d="M3.75 3.75L26.25 26.25" stroke="black" stroke-width="2" stroke-linecap="round" stroke-linejoin="round"/>
</g>
</svg>
