<svg width="30" height="30" viewBox="0 0 30 30" fill="none" xmlns="http://www.w3.org/2000/svg">
<g id="Frame" clip-path="url(#clip0_183_445)">
<g id="Layer 2">
<path id="Vector" d="M15 27.1875C14.0054 27.1875 13.0516 26.7924 12.3483 26.0891C11.6451 25.3859 11.25 24.4321 11.25 23.4375C11.25 23.1889 11.3488 22.9504 11.5246 22.7746C11.7004 22.5988 11.9389 22.5 12.1875 22.5H17.8125C18.0611 22.5 18.2996 22.5988 18.4754 22.7746C18.6512 22.9504 18.75 23.1889 18.75 23.4375C18.75 24.4321 18.3549 25.3859 17.6516 26.0891C16.9484 26.7924 15.9946 27.1875 15 27.1875ZM13.3781 24.375C13.5429 24.6591 13.7795 24.895 14.0642 25.0589C14.3488 25.2229 14.6715 25.3092 15 25.3092C15.3285 25.3092 15.6512 25.2229 15.9358 25.0589C16.2205 24.895 16.4571 24.6591 16.6219 24.375H13.3781Z" fill="black"/>
<path id="Vector_2" d="M16.875 6.5625H13.125C12.8764 6.5625 12.6379 6.46373 12.4621 6.28791C12.2863 6.1121 12.1875 5.87364 12.1875 5.625C12.1875 4.87908 12.4838 4.16371 13.0113 3.63626C13.5387 3.10882 14.2541 2.8125 15 2.8125C15.7459 2.8125 16.4613 3.10882 16.9887 3.63626C17.5162 4.16371 17.8125 4.87908 17.8125 5.625C17.8125 5.87364 17.7137 6.1121 17.5379 6.28791C17.3621 6.46373 17.1236 6.5625 16.875 6.5625Z" fill="black"/>
<path id="Vector_3" d="M25.3125 24.375H4.6875C4.43886 24.375 4.2004 24.2762 4.02459 24.1004C3.84877 23.9246 3.75 23.6861 3.75 23.4375C3.74918 22.3787 4.00454 21.3355 4.49429 20.3968C4.98403 19.4581 5.69363 18.6519 6.5625 18.0469V13.125C6.56245 10.8969 7.44368 8.75932 9.01387 7.17859C10.5841 5.59785 12.7157 4.70235 14.9438 4.6875H15.0469C17.2846 4.6875 19.4308 5.57645 21.0131 7.15879C22.5954 8.74112 23.4844 10.8872 23.4844 13.125V18.0469C24.3446 18.6571 25.0451 19.4656 25.5265 20.4039C26.0079 21.3423 26.2561 22.3829 26.25 23.4375C26.25 23.6861 26.1512 23.9246 25.9754 24.1004C25.7996 24.2762 25.5611 24.375 25.3125 24.375ZM5.71875 22.5H24.2813C24.1485 21.8501 23.8792 21.2357 23.4914 20.6975C23.1035 20.1594 22.6058 19.7097 22.0313 19.3781C21.8882 19.2955 21.7695 19.1766 21.6872 19.0334C21.6049 18.8901 21.5618 18.7277 21.5625 18.5625V13.125C21.5625 11.3845 20.8711 9.71532 19.6404 8.48461C18.4097 7.2539 16.7405 6.5625 15 6.5625C13.2595 6.5625 11.5903 7.2539 10.3596 8.48461C9.12891 9.71532 8.4375 11.3845 8.4375 13.125V18.5625C8.43816 18.7277 8.39515 18.8901 8.31283 19.0334C8.23052 19.1766 8.11182 19.2955 7.96875 19.3781C7.39416 19.7097 6.89649 20.1594 6.50862 20.6975C6.12076 21.2357 5.85153 21.8501 5.71875 22.5Z" fill="black"/>
</g>
</g>
<defs>
<clipPath id="clip0_183_445">
<rect width="30" height="30" fill="white"/>
</clipPath>
</defs>
</svg>
