<svg width="24" height="24" viewBox="0 0 24 24" fill="none" xmlns="http://www.w3.org/2000/svg">
<path fill-rule="evenodd" clip-rule="evenodd" d="M10.9754 6.25431C11.5614 6.90384 11.3756 7.63969 10.8575 8.3379C10.7347 8.50344 10.5931 8.66654 10.4221 8.84627C10.34 8.93254 10.276 8.99742 10.1421 9.13142C9.83805 9.43576 9.58247 9.69149 9.37532 9.89862C9.27487 9.99906 9.96069 11.3695 11.2917 12.7018C12.622 14.0334 13.9924 14.7197 14.0933 14.6187L14.8595 13.8521C15.2815 13.4297 15.5049 13.2259 15.812 13.0244C16.4504 12.6056 17.1467 12.4918 17.7339 13.0169C19.6513 14.3885 20.7363 15.2301 21.2679 15.7824C22.3047 16.8597 22.1688 18.518 21.2738 19.464C20.9634 19.792 20.5699 20.1858 20.1051 20.6338C17.2935 23.4469 11.3599 21.735 6.81237 17.183C2.26382 12.63 0.552792 6.69577 3.35844 3.88861C3.86214 3.377 4.02821 3.21101 4.51877 2.72765C5.43209 1.82771 7.16686 1.6868 8.22142 2.72854C8.77612 3.27649 9.66046 4.41433 10.9754 6.25431ZM16.2731 15.2661L15.5067 16.0329C14.204 17.3364 11.9855 16.2253 9.87795 14.1157C7.769 12.0047 6.65919 9.787 7.96234 8.48396C8.1692 8.27711 8.42455 8.02162 8.72836 7.71751C8.85094 7.59481 8.90701 7.53798 8.97431 7.46724C9.06601 7.37087 9.14136 7.28623 9.20168 7.21133C8.03632 5.58799 7.24412 4.57364 6.81705 4.15176C6.5965 3.93389 6.10264 3.97401 5.92133 4.15265C5.43778 4.62912 5.27884 4.78798 4.77717 5.29748C2.97286 7.10279 4.35412 11.8933 8.22611 15.7691C12.0969 19.6437 16.8867 21.0256 18.7047 19.2068C19.1623 18.7655 19.5352 18.3924 19.8221 18.089C20.0295 17.8699 20.0666 17.4176 19.828 17.1697C19.4307 16.7568 18.4579 15.9984 16.7783 14.7922C16.6558 14.8907 16.5053 15.0337 16.2731 15.2661Z" fill="black"/>
</svg>
