<svg width="37" height="50" viewBox="0 0 37 50" fill="none" xmlns="http://www.w3.org/2000/svg">
<g id="Group">
<path id="Vector" fill-rule="evenodd" clip-rule="evenodd" d="M0 6.46802C0 10.0404 2.89555 12.936 6.46802 12.936C10.0405 12.936 12.936 10.0404 12.936 6.46802C12.936 2.89555 10.0405 0 6.46802 0C2.89555 0 0 2.89555 0 6.46802Z" fill="#FFC107"/>
<path id="Vector_2" d="M5.63096 2.78662H7.3065V5.62211H10.1582V7.34601H7.3065V10.1493H5.63096V7.34601H2.7793V5.62211H5.63096V2.78662Z" fill="white"/>
<path id="Vector_3" fill-rule="evenodd" clip-rule="evenodd" d="M18.2448 42.2156C12.0728 42.2156 7.06753 37.2103 7.06753 31.0372C7.06753 24.8652 12.0729 19.86 18.2448 19.86C24.4179 19.86 29.4231 24.8653 29.4231 31.0378H36.4902C36.4902 20.9616 28.3215 12.793 18.2448 12.793C8.16866 12.793 0 20.9616 0 31.0378C0 41.1145 8.16866 49.2831 18.2448 49.2831V42.2156Z" fill="#FF6600"/>
</g>
</svg>
