<svg width="30" height="30" viewBox="0 0 30 30" fill="none" xmlns="http://www.w3.org/2000/svg">
<g id="Frame">
<path id="Vector" d="M25.7003 23.0503L19.8628 17.2128C21.0263 15.3959 21.4775 13.2133 21.1298 11.084C20.7821 8.95471 19.66 7.02896 17.979 5.67658C16.298 4.3242 14.1766 3.64053 12.0223 3.75688C9.86793 3.87324 7.83253 4.7814 6.30696 6.30696C4.7814 7.83253 3.87324 9.86793 3.75688 12.0223C3.64053 14.1766 4.3242 16.298 5.67658 17.979C7.02896 19.66 8.95471 20.7821 11.084 21.1298C13.2133 21.4775 15.3959 21.0263 17.2128 19.8628L23.0503 25.7003C23.4019 26.0514 23.8784 26.2486 24.3753 26.2486C24.8722 26.2486 25.3487 26.0514 25.7003 25.7003C25.8757 25.5271 26.0149 25.3207 26.1099 25.0933C26.2049 24.8658 26.2539 24.6218 26.2539 24.3753C26.2539 24.1288 26.2049 23.8847 26.1099 23.6573C26.0149 23.4298 25.8757 23.2235 25.7003 23.0503ZM6.25029 12.5003C6.25029 11.2642 6.61685 10.0558 7.30361 9.02798C7.99037 8.00017 8.96648 7.19909 10.1085 6.72605C11.2506 6.253 12.5072 6.12923 13.7196 6.37038C14.932 6.61154 16.0456 7.2068 16.9197 8.08088C17.7938 8.95495 18.389 10.0686 18.6302 11.281C18.8714 12.4934 18.7476 13.75 18.2745 14.8921C17.8015 16.0341 17.0004 17.0102 15.9726 17.697C14.9448 18.3837 13.7364 18.7503 12.5003 18.7503C10.8427 18.7503 9.25298 18.0918 8.08088 16.9197C6.90877 15.7476 6.25029 14.1579 6.25029 12.5003Z" fill="#464646"/>
</g>
</svg>
