<svg width="30" height="30" viewBox="0 0 30 30" fill="none" xmlns="http://www.w3.org/2000/svg">
<g id="Layer_1">
<path id="Vector" d="M27.4875 7.9125C27.1507 7.79441 26.7939 7.74345 26.4375 7.7625H12.7875C12.2625 7.7625 11.5875 7.6875 11.0625 7.8375C10.7404 7.91081 10.4532 8.09218 10.2485 8.35143C10.0438 8.61069 9.93406 8.93221 9.9375 9.2625C9.9375 9.66032 10.0955 10.0419 10.3768 10.3232C10.6581 10.6045 11.0397 10.7625 11.4375 10.7625H25.0125L23.8125 17.0625C23.7366 17.4035 23.5465 17.7083 23.2738 17.9266C23.001 18.1448 22.6618 18.2633 22.3125 18.2625H11.0625C10.7162 18.252 10.3827 18.1293 10.1122 17.9128C9.8417 17.6964 9.64879 17.398 9.5625 17.0625L7.1625 5.9625C7.0171 5.29119 6.649 4.68876 6.118 4.25306C5.58699 3.81737 4.92428 3.574 4.2375 3.5625H3.1875C2.78968 3.5625 2.40814 3.72054 2.12684 4.00184C1.84554 4.28314 1.6875 4.66468 1.6875 5.0625C1.6875 5.46032 1.84554 5.84186 2.12684 6.12316C2.40814 6.40446 2.78968 6.5625 3.1875 6.5625H4.2375L6.6375 17.6625C7.0875 19.7625 8.8875 21.1875 11.0625 21.1875H22.3125C24.1125 21.1875 25.9875 19.9875 26.5125 18.2625C26.8875 17.0625 27.1125 15.7125 27.3375 14.5125C27.5625 13.2375 27.8625 11.9625 28.0875 10.7625C28.1733 10.521 28.2238 10.2684 28.2375 10.0125C28.2995 9.7676 28.3248 9.51484 28.3125 9.2625C28.3125 8.6625 28.0125 8.0625 27.4875 7.9125ZM7.6875 24.1875C7.6875 24.7842 7.92455 25.3565 8.34651 25.7785C8.76847 26.2004 9.34076 26.4375 9.9375 26.4375C10.5342 26.4375 11.1065 26.2004 11.5285 25.7785C11.9504 25.3565 12.1875 24.7842 12.1875 24.1875C12.1875 23.5908 11.9504 23.0185 11.5285 22.5965C11.1065 22.1746 10.5342 21.9375 9.9375 21.9375C9.34076 21.9375 8.76847 22.1746 8.34651 22.5965C7.92455 23.0185 7.6875 23.5908 7.6875 24.1875ZM21.1875 24.1875C21.1875 24.6325 21.3195 25.0675 21.5667 25.4375C21.8139 25.8075 22.1653 26.0959 22.5765 26.2662C22.9876 26.4365 23.44 26.4811 23.8765 26.3943C24.3129 26.3075 24.7138 26.0932 25.0285 25.7785C25.3432 25.4638 25.5575 25.0629 25.6443 24.6265C25.7311 24.19 25.6865 23.7376 25.5162 23.3265C25.3459 22.9153 25.0575 22.5639 24.6875 22.3167C24.3175 22.0695 23.8825 21.9375 23.4375 21.9375C22.8408 21.9375 22.2685 22.1746 21.8465 22.5965C21.4246 23.0185 21.1875 23.5908 21.1875 24.1875Z" fill="white"/>
</g>
</svg>
