<svg width="30" height="30" viewBox="0 0 30 30" fill="none" xmlns="http://www.w3.org/2000/svg">
<g id="Frame">
<g id="C_-_60_x2C__career_x2C__Advancement_x2C__employee_x2C__ladder_x2C__promotion_x2C__staff_x2C__work">
<g id="Group">
<path id="Vector" d="M9.76053 23.1201H4.47525C3.46686 23.1201 2.64648 23.9363 2.64648 24.9396V27.2848H11.5689V24.9187C11.5689 23.927 10.7577 23.1201 9.76053 23.1201ZM7.63299 26.5105H6.58211V25.4646H7.63299V26.5105ZM7.63299 24.9408H6.58211V23.8949H7.63299V24.9408Z" fill="white"/>
<path id="Vector_2" d="M10.5391 18.655V21.0002H19.4614V18.6344C19.4614 17.6427 18.6503 16.8359 17.6532 16.8359H12.3679C11.3594 16.8359 10.5391 17.6519 10.5391 18.655ZM14.4747 17.6103H15.5256V18.6563H14.4747V17.6103ZM14.4747 19.18H15.5256V20.2259H14.4747V19.18Z" fill="white"/>
<path id="Vector_3" d="M22.9031 7.3834C24.1968 7.3834 25.2492 6.3365 25.2492 5.04967C25.2492 3.76277 24.1968 2.71582 22.9031 2.71582C21.6093 2.71582 20.5566 3.76277 20.5566 5.04967C20.5566 6.33656 21.6093 7.3834 22.9031 7.3834Z" fill="white"/>
<path id="Vector_4" d="M7.11793 16.333C5.82412 16.333 4.77148 17.3799 4.77148 18.6667C4.77148 19.9537 5.82412 21.0006 7.11793 21.0006C8.41162 21.0006 9.46408 19.9537 9.46408 18.6667C9.46408 17.38 8.41156 16.333 7.11793 16.333Z" fill="white"/>
<path id="Vector_5" d="M12.6641 12.3817C12.6641 13.6686 13.7166 14.7156 15.0104 14.7156C16.3041 14.7156 17.3566 13.6687 17.3566 12.3817C17.3566 11.0948 16.3041 10.0479 15.0104 10.0479C13.7166 10.0479 12.6641 11.0948 12.6641 12.3817Z" fill="white"/>
<path id="Vector_6" d="M25.5459 9.50391H20.2606C19.2521 9.50391 18.4316 10.3201 18.4316 11.3233V13.6687H27.3542V11.3024C27.3543 10.3107 26.543 9.50391 25.5459 9.50391ZM23.4183 12.8943H22.3673V11.8484H23.4183V12.8943ZM23.4183 11.3245H22.3673V10.2787H23.4183V11.3245Z" fill="white"/>
<path id="Vector_7" d="M3.25397 8.92051L5.88495 11.0154L5.88507 11.0154C5.88952 11.019 5.89433 11.0221 5.89895 11.0253C5.90112 11.0268 5.90317 11.0284 5.90534 11.0298C5.91044 11.0332 5.91559 11.0363 5.92081 11.0392C5.92356 11.0408 5.92626 11.0422 5.92907 11.0437C5.93458 11.0465 5.94009 11.0493 5.94577 11.0517C5.94847 11.0529 5.95116 11.054 5.95391 11.0551C5.95772 11.0566 5.96147 11.0584 5.96534 11.0597C5.96634 11.0601 5.96733 11.0604 5.96827 11.0608C5.97823 11.0641 5.98843 11.0669 5.99874 11.069C6.00079 11.0694 6.0029 11.0697 6.00489 11.07C6.00507 11.0701 6.00524 11.0701 6.00542 11.0701C6.00911 11.0708 6.01274 11.0714 6.01649 11.072C6.02927 11.0738 6.0421 11.0751 6.05499 11.0751C6.05522 11.0751 6.05546 11.0752 6.05575 11.0752C6.05575 11.0752 6.05581 11.0752 6.05587 11.0752C6.05593 11.0752 6.05599 11.0752 6.05599 11.0752C6.05604 11.0752 6.0561 11.0752 6.05616 11.0752C6.05634 11.0752 6.05663 11.0751 6.05692 11.0751C6.06987 11.0751 6.08265 11.0738 6.09542 11.072C6.09911 11.0714 6.10274 11.0708 6.10643 11.0701C6.10655 11.0701 6.10679 11.0701 6.10702 11.07C6.10907 11.0697 6.11112 11.0694 6.11317 11.069C6.12343 11.0668 6.13362 11.0642 6.14358 11.0608C6.14464 11.0605 6.14557 11.0601 6.14657 11.0597C6.15038 11.0584 6.15419 11.0566 6.158 11.0551C6.16069 11.054 6.16345 11.0529 6.16614 11.0517C6.17177 11.0493 6.17727 11.0465 6.18278 11.0437C6.18559 11.0422 6.18835 11.0408 6.1911 11.0392C6.19638 11.0363 6.20147 11.0332 6.20657 11.0298C6.2088 11.0284 6.21085 11.0268 6.21302 11.0253C6.2177 11.0221 6.22239 11.019 6.2269 11.0154L6.22696 11.0154L8.85794 8.92051C8.97659 8.82611 8.99616 8.65338 8.90177 8.53479C8.80731 8.41619 8.63452 8.3965 8.51598 8.49102L6.3305 10.2311V4.79035H15.5275C15.6792 4.79035 15.8021 4.66742 15.8021 4.51578C15.8021 4.36414 15.6792 4.24121 15.5275 4.24121H6.05593C5.90434 4.24121 5.78136 4.36414 5.78136 4.51578V10.2311L3.59593 8.49102C3.47739 8.39656 3.3046 8.41619 3.2102 8.53479C3.11569 8.65338 3.13532 8.82611 3.25397 8.92051Z" fill="white"/>
<path id="Vector_8" d="M26.7471 21.0598L24.116 18.9651C24.1133 18.9629 24.1102 18.9615 24.1074 18.9595C24.1009 18.9547 24.0942 18.9503 24.0873 18.9461C24.0823 18.943 24.0775 18.9397 24.0724 18.937C24.0686 18.9349 24.0645 18.9334 24.0606 18.9316C24.0538 18.9284 24.0469 18.9257 24.0398 18.9231C24.0342 18.921 24.0288 18.9186 24.0231 18.9169C24.0186 18.9156 24.0141 18.9148 24.0097 18.9137C24.0028 18.9121 23.996 18.9108 23.989 18.9097C23.983 18.9087 23.9771 18.9074 23.971 18.9069C23.9659 18.9064 23.9607 18.9065 23.9555 18.9064C23.952 18.9062 23.9487 18.9053 23.9451 18.9053C23.9417 18.9053 23.9387 18.9062 23.9354 18.9063C23.9296 18.9064 23.9238 18.9064 23.918 18.907C23.9125 18.9076 23.9073 18.9088 23.902 18.9097C23.895 18.9108 23.888 18.9119 23.8813 18.9135C23.8763 18.9147 23.8713 18.9157 23.8662 18.9172C23.861 18.9187 23.8561 18.921 23.8509 18.9229C23.8438 18.9255 23.8367 18.9282 23.8299 18.9314C23.8258 18.9333 23.8215 18.935 23.8175 18.9371C23.8125 18.9398 23.8079 18.9431 23.8031 18.9459C23.7961 18.9502 23.7893 18.9547 23.7826 18.9596C23.7798 18.9616 23.7767 18.9629 23.7741 18.9651L23.7692 18.9689C23.7692 18.9689 23.7692 18.969 23.769 18.969L21.1433 21.0598C21.0247 21.1543 21.0051 21.327 21.0996 21.4456C21.1538 21.5137 21.2337 21.5491 21.3144 21.5491C21.3744 21.5491 21.4348 21.5296 21.4853 21.4894L23.6705 19.7494V25.1897H14.4737C14.3221 25.1897 14.1992 25.3126 14.1992 25.4643C14.1992 25.6159 14.3221 25.7388 14.4737 25.7388H23.9451C24.0968 25.7388 24.2197 25.6159 24.2197 25.4643V19.7494L26.4052 21.4894C26.4557 21.5297 26.5161 21.5492 26.576 21.5492C26.6568 21.5492 26.7368 21.5138 26.791 21.4457C26.8854 21.3271 26.8657 21.1543 26.7471 21.0598Z" fill="white"/>
</g>
</g>
</g>
</svg>
