<svg width="222" height="50" viewBox="0 0 222 50" fill="none" xmlns="http://www.w3.org/2000/svg">
<path fill-rule="evenodd" clip-rule="evenodd" d="M11 6.46802C11 10.0404 13.8955 12.936 17.468 12.936C21.0405 12.936 23.936 10.0404 23.936 6.46802C23.936 2.89555 21.0405 0 17.468 0C13.8955 0 11 2.89555 11 6.46802Z" fill="#FFC107"/>
<path d="M16.631 2.78662H18.3065V5.62211H21.1582V7.34601H18.3065V10.1493H16.631V7.34601H13.7793V5.62211H16.631V2.78662Z" fill="white"/>
<path fill-rule="evenodd" clip-rule="evenodd" d="M29.2448 42.2156C23.0728 42.2156 18.0675 37.2103 18.0675 31.0372C18.0675 24.8652 23.0729 19.86 29.2448 19.86C35.4179 19.86 40.4231 24.8653 40.4231 31.0378H47.4902C47.4902 20.9616 39.3215 12.793 29.2448 12.793C19.1687 12.793 11 20.9616 11 31.0378C11 41.1145 19.1687 49.2831 29.2448 49.2831V42.2156Z" fill="#FF6600"/>
<path d="M58.8402 11.8416H66.4602C67.5802 11.8416 68.5852 12.0766 69.4752 12.5466C70.3652 13.0066 71.0702 13.6816 71.5902 14.5716C72.1202 15.4516 72.3852 16.5166 72.3852 17.7666C72.3852 19.0066 72.1552 20.0266 71.6952 20.8266C71.2352 21.6166 70.6802 22.2116 70.0302 22.6116C69.3902 23.0116 68.7952 23.2416 68.2452 23.3016L73.1052 31.6416H68.8752L64.4802 23.5866H62.5752V31.6416H58.8402V11.8416ZM62.5752 20.9466H65.1252C66.0752 20.9466 66.8802 20.7116 67.5402 20.2416C68.2102 19.7716 68.5452 18.9816 68.5452 17.8716C68.5452 16.7616 68.2152 15.9816 67.5552 15.5316C66.8952 15.0716 66.0952 14.8416 65.1552 14.8416H62.5752V20.9466ZM79.0197 26.3316C79.0497 26.8916 79.1997 27.3916 79.4697 27.8316C79.7397 28.2716 80.1297 28.6166 80.6397 28.8666C81.1597 29.1166 81.7797 29.2416 82.4997 29.2416C83.1497 29.2416 83.7197 29.1616 84.2097 29.0016C84.7097 28.8416 85.1297 28.6466 85.4697 28.4166C85.8197 28.1766 86.0797 27.9466 86.2497 27.7266L87.8247 30.0666C87.5447 30.4166 87.1697 30.7416 86.6997 31.0416C86.2397 31.3316 85.6497 31.5616 84.9297 31.7316C84.2197 31.9116 83.3297 32.0016 82.2597 32.0016C80.9097 32.0016 79.7247 31.7366 78.7047 31.2066C77.6847 30.6766 76.8897 29.9116 76.3197 28.9116C75.7497 27.9116 75.4647 26.7216 75.4647 25.3416C75.4647 24.1416 75.7197 23.0616 76.2297 22.1016C76.7397 21.1316 77.4797 20.3666 78.4497 19.8066C79.4297 19.2466 80.6047 18.9666 81.9747 18.9666C83.2647 18.9666 84.3797 19.2166 85.3197 19.7166C86.2697 20.2066 87.0047 20.9266 87.5247 21.8766C88.0447 22.8266 88.3047 23.9866 88.3047 25.3566C88.3047 25.4366 88.2997 25.6016 88.2897 25.8516C88.2897 26.0916 88.2797 26.2516 88.2597 26.3316H79.0197ZM84.7347 23.9766C84.7247 23.6566 84.6247 23.3116 84.4347 22.9416C84.2547 22.5716 83.9697 22.2566 83.5797 21.9966C83.1897 21.7366 82.6697 21.6066 82.0197 21.6066C81.3697 21.6066 80.8347 21.7316 80.4147 21.9816C80.0047 22.2316 79.6947 22.5416 79.4847 22.9116C79.2747 23.2716 79.1547 23.6266 79.1247 23.9766H84.7347ZM94.7174 31.6416H90.8924V11.0016H94.7174V31.6416ZM107.642 31.6416V29.4966C107.552 29.7166 107.322 30.0266 106.952 30.4266C106.582 30.8266 106.082 31.1916 105.452 31.5216C104.832 31.8416 104.102 32.0016 103.262 32.0016C102.082 32.0016 101.037 31.7216 100.127 31.1616C99.2173 30.5916 98.5023 29.8166 97.9823 28.8366C97.4723 27.8466 97.2173 26.7316 97.2173 25.4916C97.2173 24.2516 97.4723 23.1416 97.9823 22.1616C98.5023 21.1716 99.2173 20.3916 100.127 19.8216C101.037 19.2516 102.082 18.9666 103.262 18.9666C104.082 18.9666 104.792 19.1066 105.392 19.3866C106.002 19.6566 106.492 19.9766 106.862 20.3466C107.242 20.7066 107.487 21.0316 107.597 21.3216V19.3266H111.377V31.6416H107.642ZM100.952 25.4916C100.952 26.1816 101.107 26.7916 101.417 27.3216C101.727 27.8416 102.137 28.2466 102.647 28.5366C103.157 28.8266 103.712 28.9716 104.312 28.9716C104.942 28.9716 105.502 28.8266 105.992 28.5366C106.482 28.2366 106.867 27.8266 107.147 27.3066C107.437 26.7766 107.582 26.1716 107.582 25.4916C107.582 24.8116 107.437 24.2116 107.147 23.6916C106.867 23.1616 106.482 22.7466 105.992 22.4466C105.502 22.1466 104.942 21.9966 104.312 21.9966C103.712 21.9966 103.157 22.1466 102.647 22.4466C102.137 22.7366 101.727 23.1466 101.417 23.6766C101.107 24.1966 100.952 24.8016 100.952 25.4916ZM113.455 19.3266H115.675V14.2716H119.455V19.3266H122.365V22.4916H119.455V26.9466C119.455 27.5366 119.55 27.9966 119.74 28.3266C119.93 28.6466 120.23 28.8066 120.64 28.8066C120.95 28.8066 121.205 28.7466 121.405 28.6266C121.605 28.4966 121.725 28.4066 121.765 28.3566L123.115 31.0866C123.055 31.1466 122.86 31.2516 122.53 31.4016C122.21 31.5516 121.795 31.6866 121.285 31.8066C120.785 31.9366 120.22 32.0016 119.59 32.0016C118.46 32.0016 117.525 31.6766 116.785 31.0266C116.045 30.3666 115.675 29.3466 115.675 27.9666V22.4916H113.455V19.3266ZM127.858 26.3316C127.888 26.8916 128.038 27.3916 128.308 27.8316C128.578 28.2716 128.968 28.6166 129.478 28.8666C129.998 29.1166 130.618 29.2416 131.338 29.2416C131.988 29.2416 132.558 29.1616 133.048 29.0016C133.548 28.8416 133.968 28.6466 134.308 28.4166C134.658 28.1766 134.918 27.9466 135.088 27.7266L136.663 30.0666C136.383 30.4166 136.008 30.7416 135.538 31.0416C135.078 31.3316 134.488 31.5616 133.768 31.7316C133.058 31.9116 132.168 32.0016 131.098 32.0016C129.748 32.0016 128.563 31.7366 127.543 31.2066C126.523 30.6766 125.728 29.9116 125.158 28.9116C124.588 27.9116 124.303 26.7216 124.303 25.3416C124.303 24.1416 124.558 23.0616 125.068 22.1016C125.578 21.1316 126.318 20.3666 127.288 19.8066C128.268 19.2466 129.443 18.9666 130.813 18.9666C132.103 18.9666 133.218 19.2166 134.158 19.7166C135.108 20.2066 135.843 20.9266 136.363 21.8766C136.883 22.8266 137.143 23.9866 137.143 25.3566C137.143 25.4366 137.138 25.6016 137.128 25.8516C137.128 26.0916 137.118 26.2516 137.098 26.3316H127.858ZM133.573 23.9766C133.563 23.6566 133.463 23.3116 133.273 22.9416C133.093 22.5716 132.808 22.2566 132.418 21.9966C132.028 21.7366 131.508 21.6066 130.858 21.6066C130.208 21.6066 129.673 21.7316 129.253 21.9816C128.843 22.2316 128.533 22.5416 128.323 22.9116C128.113 23.2716 127.993 23.6266 127.963 23.9766H133.573ZM147.665 23.2416V27.8466H144.545V23.2416H139.925V20.1366H144.545V15.5316H147.665V20.1366H152.24V23.2416H147.665Z" fill="black"/>
</svg>
